<svg width="3245.0" height="890.0" version="1.1" xmlns="http://www.w3.org/2000/svg" xmlns:xlink="http://www.w3.org/1999/xlink">
    <path transform="scale(1 -1) translate(-10 -770.0)"
          d="M10 750V720H200L210 523H246V750ZM60 722V23H110V722ZM95 390V360H156V258H192V478H156V390ZM10 30V0H226V30ZM372 655C423 655 458 627 458 555V82C458 25 422 -5 372 -5C322 -5 286 25 286 82V555C286 624 321 655 372 655ZM372 630C349 630 336 610 336 577V73C336 44 347 23 372 23C397 23 408 44 408 73V577C408 611 395 630 372 630ZM529 625V20H579V625ZM493 650V620H579V650ZM619 30V0H735V30ZM493 30V0H609V30ZM579 541C579 590 594 621 620 621C637 621 649 610 649 575V20H699V576C699 605 690 655 644 655C588 655 576 589 576 541ZM793 606V602V87C793 16 825 -5 861 -5C902 -5 925 22 925 87V470H895V76C895 41 884 28 869 28C853 28 843 36 843 77V605L853 734H848ZM740 620V590L943 620V650ZM1076 730C1101.2353 730 1115 715 1115 677V483H1165V665C1165 739 1126.8571 765 1076 765C1022.0349 765 985 733 985 665V85C985 17 1022.0349 -15 1076 -15C1126.8571 -15 1165 11 1165 85V340H1115V73C1115 35 1101.2353 20 1076 20C1046.3889 20 1035 40 1035 73V677C1035 710 1046.3889 730 1076 730ZM1226 725V20H1276V725ZM1190 750V720H1276V750ZM1190 30V0H1312V30ZM1518 25V630H1468V25ZM1554 0V30H1468V0ZM1408 620V650H1322V620ZM1518 620V650H1438V620ZM1468 109C1468 60 1455 29 1432 29C1417.931 29 1408 40 1408 75V630H1358V74C1358 45 1366.1818 -5 1408 -5C1460 -5 1471 61 1471 109ZM1600 725V-15H1605L1650 76V725ZM1564 750V720H1650V750ZM1772 92V558C1772 621 1756 655 1712 655C1679 655 1649 634 1649 555H1650C1650 594 1663 620 1691 620C1713 620 1722 604 1722 577V73C1722 46 1713 30 1691 30C1663 30 1650 56 1650 95H1646C1646 16 1676 -5 1709 -5C1753 -5 1772 29 1772 92ZM1862 722V23H1912V722ZM1992 643V441C1992 414 1975 393 1949 393V383C2008 383 2042 402 2042 462V643C2042 719 2028 750 1948 750H1812V720H1956C1989 720 1992 705 1992 643ZM1992 107C1992 45 1989 30 1956 30H1812V0H1948C2028 0 2042 31 2042 107V305C2042 350 2017 385 1959 385H1957L1949 393H1893V363H1953C1978 363 1992 339 1992 315ZM2258 290 2264 92C2266 25 2227 -5 2184 -5C2133 -5 2102 25 2102 82V555C2102 624 2129 655 2188 655C2234 655 2266 626 2266 555V380H2216V565C2216 598 2210 618 2185 618C2157 618 2152 599 2152 567V77C2152 48 2159 27 2193 27C2211 27 2233 46 2232 87L2228 290ZM2135 410H2253V380H2135ZM2327 725V20H2377V725ZM2291 750V720H2377V750ZM2291 30V0H2413V30ZM2433 -85C2433 -107 2454 -120 2493 -120H2634C2683 -120 2711 -101 2711 -62C2711 -29 2689 1 2643 1C2583 1 2539 -2 2504 -2C2487 -2 2470 0 2470 17C2470 29 2479 37 2496 37C2510 37 2516 35 2537 35L2532 36C2520 36 2502 42 2487 42C2459 42 2439 25 2439 2C2439 -33 2476 -49 2515 -49H2516H2660C2678 -49 2687 -58 2687 -70C2687 -81 2680 -90 2661 -90H2504C2479 -90 2471 -80 2471 -69C2471 -53 2492 -49 2529 -49L2523 -45C2480 -45 2433 -56 2433 -85ZM2451 142C2451 78 2483 35 2537 35C2591 35 2621 83 2621 142V538C2621 628 2589 658 2534 658C2482 658 2451 619 2451 559ZM2571 142C2571 93 2564 64 2536 64C2508 64 2501 90 2501 141V559C2501 606 2505 628 2536 628C2568 628 2571 602 2571 558ZM2695 650C2642 650 2620 599 2620 550L2621 531C2621 585 2657 602 2695 602ZM2737 625V20H2787V625ZM2701 650V620H2787V650ZM2701 30V0H2823V30ZM2725 770V708H2787V770ZM3010 290V82C3010 25 2978 -5 2934 -5C2889.9012 -5 2858 25 2858 82V555C2858 623 2891 655 2943 655C2984 655 3022 628 3018 554L3010 412L2960 414L2968 566C2970 607 2958 618 2939 618C2917 618 2908 601 2908 565V77C2908 48 2916.8095 27 2945 27C2963 27 2980 46 2980 77V290ZM3103 450H3053V569C3053 623 3088 651 3139 651C3201 651 3223 610 3223 566V48C3223 37 3227 30 3241 30H3255V0H3207C3185 0 3173 14 3173 37V566C3173 599 3161 611 3137 611C3115 611 3103 597 3103 566ZM3188 399 3178 373C3125 320 3103 281 3103 213V101C3103 57 3107 37 3131 37C3164 37 3173 85 3173 119H3174C3174 54 3166 -5 3111 -5C3079 -5 3053 22 3053 76V214C3053 318 3119 358 3188 399Z" />
</svg>
